HIERARCHY
ROOT Hips
{
	OFFSET 0.000000 0.000000 0.000000
	CHANNELS 6 Xposition Yposition Zposition Zrotation Yrotation Xrotation 
	JOINT LHipJoint
	{
		OFFSET 0.000000 0.000000 0.000000
		CHANNELS 3 Zrotation Yrotation Xrotation
		JOINT LeftUpLeg
		{
			OFFSET 1.363060 -1.794630 0.839290
			CHANNELS 3 Zrotation Yrotation Xrotation
			JOINT LeftLeg
			{
				OFFSET 2.448110 -6.726130 0.000000
				CHANNELS 3 Zrotation Yrotation Xrotation
				JOINT LeftFoot
				{
					OFFSET 2.562200 -7.039590 0.000000
					CHANNELS 3 Zrotation Yrotation Xrotation
					JOINT LeftToeBase
					{
						OFFSET 0.157640 -0.433110 2.322550
						CHANNELS 3 Zrotation Yrotation Xrotation
						End Site
						{
							OFFSET 0.000000 0.000000 0.000000
						}
					}
				}
			}
		}
	}
	JOINT RHipJoint
	{
		OFFSET 0.000000 0.000000 0.000000
		CHANNELS 3 Zrotation Yrotation Xrotation
		JOINT RightUpLeg
		{
			OFFSET -1.305520 -1.794630 0.839290
			CHANNELS 3 Zrotation Yrotation Xrotation
			JOINT RightLeg
			{
				OFFSET -2.542530 -6.985550 0.000000
				CHANNELS 3 Zrotation Yrotation Xrotation
				JOINT RightFoot
				{
					OFFSET -2.568260 -7.056230 0.000000
					CHANNELS 3 Zrotation Yrotation Xrotation
					JOINT RightToeBase
					{
						OFFSET -0.164730 -0.452590 2.363150
						CHANNELS 3 Zrotation Yrotation Xrotation
						End Site
						{
							OFFSET 0.000000 0.000000 0.000000
						}
					}
				}
			}
		}
	}
	JOINT LowerBack
	{
		OFFSET 0.000000 0.000000 0.000000
		CHANNELS 3 Zrotation Yrotation Xrotation
		JOINT Spine
		{
			OFFSET 0.028270 2.035590 -0.193380
			CHANNELS 3 Zrotation Yrotation Xrotation
			JOINT Spine1
			{
				OFFSET 0.056720 2.048850 -0.042750
				CHANNELS 3 Zrotation Yrotation Xrotation
				JOINT Neck
				{
					OFFSET 0.000000 0.000000 0.000000
					CHANNELS 3 Zrotation Yrotation Xrotation
					JOINT Neck1
					{
						OFFSET -0.054170 1.746240 0.172020
						CHANNELS 3 Zrotation Yrotation Xrotation
						JOINT Head
						{
							OFFSET 0.104070 1.761360 -0.123970
							CHANNELS 3 Zrotation Yrotation Xrotation
							End Site
							{
								OFFSET 0.000000 0.000000 0.000000
							}
						}
					}
				}
				JOINT LeftShoulder
				{
					OFFSET 0.000000 0.000000 0.000000
					CHANNELS 3 Zrotation Yrotation Xrotation
					JOINT LeftArm
					{
						OFFSET 3.362410 1.200890 -0.311210
						CHANNELS 3 Zrotation Yrotation Xrotation
						JOINT LeftForeArm
						{
							OFFSET 4.983000 -0.000000 -0.000000
							CHANNELS 3 Zrotation Yrotation Xrotation
							JOINT LeftHand
							{
								OFFSET 3.483560 -0.000000 -0.000000
								CHANNELS 3 Zrotation Yrotation Xrotation
								JOINT LeftFingerBase
								{
									OFFSET 0.000000 0.000000 0.000000
									CHANNELS 3 Zrotation Yrotation Xrotation
									JOINT LeftHandIndex1
									{
										OFFSET 0.715260 -0.000000 -0.000000
										CHANNELS 3 Zrotation Yrotation Xrotation
										End Site
										{
											OFFSET 0.000000 0.000000 0.000000
										}
									}
								}
								JOINT LThumb
								{
									OFFSET 0.000000 0.000000 0.000000
									CHANNELS 3 Zrotation Yrotation Xrotation
									End Site
									{
										OFFSET 0.000000 0.000000 0.000000
									}
								}
							}
						}
					}
				}
				JOINT RightShoulder
				{
					OFFSET 0.000000 0.000000 0.000000
					CHANNELS 3 Zrotation Yrotation Xrotation
					JOINT RightArm
					{
						OFFSET -3.136600 1.374050 -0.404650
						CHANNELS 3 Zrotation Yrotation Xrotation
						JOINT RightForeArm
						{
							OFFSET -5.241900 -0.000000 -0.000000
							CHANNELS 3 Zrotation Yrotation Xrotation
							JOINT RightHand
							{
								OFFSET -3.444170 -0.000000 -0.000000
								CHANNELS 3 Zrotation Yrotation Xrotation
								JOINT RightFingerBase
								{
									OFFSET 0.000000 0.000000 0.000000
									CHANNELS 3 Zrotation Yrotation Xrotation
									JOINT RightHandIndex1
									{
										OFFSET -0.622530 -0.000000 -0.000000
										CHANNELS 3 Zrotation Yrotation Xrotation
										End Site
										{
											OFFSET 0.000000 0.000000 0.000000
										}
									}
								}
								JOINT RThumb
								{
									OFFSET 0.000000 0.000000 0.000000
									CHANNELS 3 Zrotation Yrotation Xrotation
									End Site
									{
										OFFSET 0.000000 0.000000 0.000000
									}
								}
							}
						}
					}
				}
			}
		}
	}
}
MOTION
Frames: 12
Frame Time: 0.008333
2.564034 17.282027 0.592193 168.897519 88.968704 165.764037 -11.371553 5.240292 -1.018862 6.621896 14.800663 10.728361 0.067005 2.455065 31.578135 1.944081 -2.961957 36.576831 -2.952000 0.000000 -67.013200 9.554007 -0.153864 1.019415 8.782384 -2.525173 -12.993933 1.762422 0.439540 10.502472 -2.661879 -11.803927 -9.316296 -0.257000 -0.000000 -30.632901 2.279967 -6.824562 -1.501553 0.369295 -7.133564 -2.400700 -4.735309 -7.103795 2.943268 9.140146 -23.188503 -9.389273 -2.260678 -0.152085 -0.390080 0.000000 0.000000 0.000000 4.459385 10.149784 0.354479 -36.457555 1.292307 -3.019541 -1.279535 -58.601363 -0.020055 6.487814 -2.969451 -0.185117 -0.124225 0.253854 0.000000 0.000000 0.000000 0.000000 0.000000 0.000000 0.000000 15.118966 -22.998767 -0.643926 76.615632 -23.697672 -11.431552 4.551511 23.629206 -0.002118 8.838980 0.179014 0.012581 0.065377 0.017427 -0.000000 0.000000 0.000000 0.000000 0.000000 0.000000 0.000000 
2.778570 17.235035 0.629858 177.209900 88.943241 173.779675 -11.662861 5.190770 -1.099776 7.678825 15.501326 9.723745 0.139703 2.520621 34.204271 2.104508 -1.255094 36.541329 -1.898200 -0.000000 -62.506000 9.361982 -0.238030 0.743111 9.270384 -3.347082 -12.995069 1.816701 0.240174 12.634287 -2.494642 -10.962031 -9.528610 -0.154400 0.000000 -30.104899 2.526889 -6.683351 -1.209040 0.392795 -7.012810 -2.362266 -4.793128 -6.979505 2.916668 9.167906 -23.066180 -9.372568 -2.278888 -0.153740 -0.388111 0.000000 0.000000 0.000000 4.214360 10.112092 0.375731 -36.262325 1.135792 -2.855656 -1.294080 -58.482156 -0.018695 6.282777 -3.103327 -0.186625 -0.122379 0.251276 -0.000000 0.000000 0.000000 0.000000 0.000000 0.000000 0.000000 15.134301 -22.825801 -0.619258 76.630678 -23.050192 -11.799959 4.529219 23.246907 -0.001489 8.449329 0.279942 0.019592 0.067526 0.014964 -0.000000 0.000000 0.000000 0.000000 0.000000 0.000000 0.000000 
2.990325 17.186377 0.664770 -175.514933 88.838798 -179.238462 -11.950714 5.095327 -1.182837 8.618465 16.114589 8.658160 0.232404 2.596316 36.869768 2.261903 1.063112 35.920904 -0.443700 0.000000 -58.053300 9.165253 -0.352011 0.453682 9.726705 -4.342870 -13.090460 1.862128 0.026013 14.825761 -2.326717 -10.109979 -9.737181 -0.061201 0.000000 -29.402700 2.769487 -6.543125 -0.897016 0.414349 -6.890467 -2.319134 -4.859228 -6.854369 2.886295 9.214500 -22.917076 -9.355090 -2.305050 -0.156039 -0.386320 0.000000 0.000000 0.000000 3.970674 10.045170 0.398982 -36.187642 0.981952 -2.694493 -1.313865 -58.258799 -0.017581 6.141769 -3.141140 -0.184327 -0.121815 0.247056 -0.000000 0.000000 0.000000 0.000000 0.000000 0.000000 0.000000 15.187125 -22.632732 -0.594884 76.611061 -22.275366 -12.191367 4.499529 22.762855 -0.000694 7.943762 0.447901 0.030205 0.070260 0.011938 -0.000000 0.000000 0.000000 0.000000 0.000000 0.000000 0.000000 
3.199140 17.137223 0.697340 -169.454586 88.680748 -173.465291 -12.208982 4.964175 -1.270966 9.415381 16.624331 7.546808 0.339286 2.688033 39.532547 2.414324 3.830501 34.685089 1.251900 -0.000000 -53.875400 8.987517 -0.483611 0.162310 10.137443 -5.435889 -13.224682 1.895531 -0.192757 17.001907 -2.168738 -9.295154 -9.965331 0.025600 -0.000000 -28.469600 3.018008 -6.401895 -0.570287 0.433929 -6.764488 -2.272976 -4.935705 -6.725962 2.850226 9.282383 -22.733316 -9.335371 -2.340409 -0.159109 -0.384277 0.000000 0.000000 0.000000 3.738478 9.949721 0.422230 -36.243855 0.855631 -2.537115 -1.337953 -57.942299 -0.016779 6.080436 -3.084929 -0.179224 -0.122581 0.241259 -0.000000 0.000000 0.000000 0.000000 0.000000 0.000000 0.000000 15.284594 -22.409308 -0.570065 76.546859 -21.377275 -12.602798 4.464411 22.176358 0.000184 7.349921 0.658201 0.041520 0.073423 0.008554 -0.000000 0.000000 0.000000 0.000000 0.000000 0.000000 0.000000 
3.405087 17.088911 0.728190 -164.573702 88.502529 -168.853673 -12.426725 4.812286 -1.364685 10.049376 17.032315 6.384400 0.453085 2.799849 42.157160 2.559218 6.836327 32.829499 2.984700 -0.000001 -50.024700 8.838194 -0.618648 -0.115244 10.494173 -6.520004 -13.348235 1.914671 -0.403900 19.091365 -2.033737 -8.576128 -10.240419 0.109400 0.000000 -27.278901 3.268284 -6.256281 -0.242394 0.449890 -6.631283 -2.226580 -5.023422 -6.590388 2.808840 9.374921 -22.510376 -9.313715 -2.385346 -0.162979 -0.381958 0.000000 0.000000 0.000000 3.524336 9.839807 0.443370 -36.434825 0.771849 -2.380453 -1.365692 -57.542230 -0.016318 6.111263 -2.943594 -0.172017 -0.124690 0.233985 0.000000 0.000000 0.000000 0.000000 0.000000 0.000000 0.000000 15.433961 -22.147300 -0.544898 76.422462 -20.358345 -13.005912 4.425429 21.485754 0.001085 6.690253 0.894925 0.051634 0.076863 0.004993 -0.000000 0.000000 0.000000 0.000000 0.000000 0.000000 0.000000 
3.608186 17.042753 0.757826 -160.689246 88.328914 -165.215506 -12.604937 4.651139 -1.464085 10.510598 17.342706 5.175217 0.568235 2.931643 44.701674 2.694540 9.868680 30.393623 4.553600 0.000000 -46.519900 8.715010 -0.747380 -0.369197 10.796656 -7.509096 -13.404224 1.920930 -0.597112 21.023079 -1.930743 -7.993821 -10.587299 0.194300 0.000000 -25.823700 3.509298 -6.105603 0.078900 0.460389 -6.489923 -2.181571 -5.121672 -6.446578 2.762170 9.492309 -22.242294 -9.289724 -2.439895 -0.167652 -0.379202 0.000000 0.000000 0.000000 3.328504 9.727978 0.461339 -36.758748 0.744734 -2.221719 -1.396835 -57.069827 -0.016194 6.241714 -2.733987 -0.163607 -0.128075 0.225382 0.000000 0.000000 0.000000 0.000000 0.000000 0.000000 0.000000 15.637323 -21.838268 -0.519541 76.227811 -19.223608 -13.386672 4.383971 20.695132 0.001940 5.990179 1.138160 0.058948 0.080399 0.001441 -0.000000 0.000000 0.000000 0.000000 0.000000 0.000000 0.000000 
3.808636 16.999979 0.786692 -157.607680 88.174978 -162.353469 -12.748546 4.487731 -1.567922 10.796184 17.560796 3.924024 0.679834 3.079085 47.124707 2.818810 12.747936 27.451809 5.796800 -0.000000 -43.330600 8.611647 -0.864543 -0.592637 11.050669 -8.335804 -13.344973 1.917754 -0.765560 22.737946 -1.865460 -7.574165 -11.025800 0.284800 0.000000 -24.130100 3.729654 -5.952046 0.387075 0.464165 -6.342387 -2.139260 -5.228847 -6.296495 2.710386 9.632806 -21.922828 -9.262472 -2.503846 -0.173116 -0.375722 0.000000 0.000000 0.000000 3.147371 9.626125 0.476055 -37.209102 0.785313 -2.056639 -1.431480 -56.535356 -0.016353 6.472553 -2.477936 -0.154394 -0.132570 0.215625 0.000000 0.000000 0.000000 0.000000 0.000000 0.000000 0.000000 15.893464 -21.475017 -0.494607 75.956638 -17.981826 -13.737900 4.341182 19.813474 0.002701 5.273623 1.370768 0.062459 0.083857 -0.001941 -0.000000 0.000000 0.000000 0.000000 0.000000 0.000000 0.000000 
4.006625 16.961660 0.815158 -155.166127 88.047536 -160.103249 -12.862615 4.325711 -1.673646 10.908745 17.690684 2.638656 0.782559 3.234917 49.385975 2.931508 15.347234 24.106927 6.613800 -0.000001 -40.426199 8.521799 -0.967811 -0.782204 11.265049 -8.957136 -13.134750 1.909420 -0.905736 24.192454 -1.840063 -7.326865 -11.566544 0.385600 -0.000000 -22.256699 3.919579 -5.799196 0.677370 0.460623 -6.192115 -2.100431 -5.342107 -6.143642 2.654554 9.792615 -21.551316 -9.231420 -2.575865 -0.179258 -0.371351 0.000000 0.000000 0.000000 2.975434 9.546695 0.487779 -37.777267 0.898457 -1.880600 -1.469995 -55.943862 -0.016712 6.797051 -2.200834 -0.144681 -0.137908 0.204918 0.000000 0.000000 0.000000 0.000000 0.000000 0.000000 0.000000 16.195404 -21.057204 -0.470900 75.605183 -16.638943 -14.040872 4.297708 18.850195 0.003345 4.556175 1.585259 0.062368 0.087123 -0.005049 -0.000000 0.000000 0.000000 0.000000 0.000000 0.000000 0.000000 
4.202416 16.928670 0.843464 -153.252978 87.948224 -158.355435 -12.950566 4.167497 -1.778378 10.856089 17.737946 1.330111 0.870309 3.391427 51.451226 3.031498 17.586682 20.461559 6.961500 0.000000 -37.634600 8.441242 -1.056303 -0.938803 11.448514 -9.360026 -12.749713 1.900188 -1.016624 25.360044 -1.852920 -7.242566 -12.210426 0.501000 -0.000001 -20.255000 4.073360 -5.650627 0.947899 0.449577 -6.042750 -2.065860 -5.459457 -5.991743 2.593687 9.965525 -21.116702 -9.192393 -2.655557 -0.186094 -0.364966 0.000000 0.000000 0.000000 2.806103 9.493074 0.497868 -38.450727 1.092711 -1.687429 -1.513041 -55.299211 -0.017138 7.201157 -1.928732 -0.135065 -0.143736 0.193410 0.000000 0.000000 0.000000 0.000000 0.000000 0.000000 0.000000 16.533605 -20.573620 -0.448730 75.184222 -15.219393 -14.340856 4.254899 17.831126 0.003845 3.865187 1.764766 0.058673 0.090049 -0.007843 -0.000000 0.000000 0.000000 0.000000 0.000000 0.000000 0.000000 
4.396320 16.901570 0.871870 -151.805580 87.875986 -157.048705 -13.014135 4.014250 -1.878005 10.644722 17.704731 0.010135 0.936573 3.540250 53.287589 3.119521 19.441064 16.645912 6.861800 0.000000 -34.994100 8.368004 -1.129518 -1.065129 11.607698 -9.548346 -12.180743 1.892624 -1.098863 26.227339 -1.900790 -7.306657 -12.939628 0.633500 -0.000000 -18.244000 4.185592 -5.509222 1.196963 0.431392 -5.897163 -2.035418 -5.576233 -5.843833 2.530408 10.145215 -20.630817 -9.145240 -2.739501 -0.193332 -0.356520 0.000000 0.000000 0.000000 2.635998 9.473060 0.506262 -39.223300 1.362422 -1.473092 -1.561389 -54.593063 -0.017481 7.662597 -1.684451 -0.126250 -0.149630 0.181283 -0.000000 0.000000 0.000000 0.000000 0.000000 0.000000 0.000000 16.891325 -20.037809 -0.428500 74.696704 -13.725571 -14.601166 4.212572 16.765940 0.004235 3.198099 1.921566 0.052676 0.092673 -0.010350 -0.000000 0.000000 0.000000 0.000000 0.000000 0.000000 0.000000 
4.588676 16.880719 0.900464 -150.800802 87.828210 -156.164088 -13.053472 3.867385 -1.968977 10.285383 17.596329 -1.307839 0.975649 3.674837 54.871517 3.195407 20.913228 12.772921 6.372699 0.000000 -32.418700 8.302341 -1.187295 -1.166673 11.746078 -9.549478 -11.428551 1.888125 -1.154105 26.794100 -1.978035 -7.493778 -13.725653 0.782900 0.000000 -16.326000 4.253497 -5.376370 1.425112 0.406428 -5.756851 -2.009013 -5.688852 -5.701569 2.465330 10.323772 -20.096352 -9.086472 -2.825222 -0.200806 -0.345070 0.000000 0.000000 0.000000 2.463403 9.484591 0.513507 -40.088111 1.706195 -1.233545 -1.616018 -53.814396 -0.017578 8.153297 -1.486096 -0.119038 -0.155161 0.168630 0.000000 0.000000 0.000000 0.000000 0.000000 0.000000 0.000000 17.250392 -19.453083 -0.410037 74.158910 -12.176560 -14.844784 4.171241 15.680003 0.004529 2.563916 2.057969 0.044876 0.095001 -0.012657 -0.000000 0.000000 0.000000 0.000000 0.000000 0.000000 0.000000 
4.779836 16.866154 0.929296 -150.234862 87.801699 -155.701796 -13.068132 3.727973 -2.047920 9.789122 17.419416 -2.611733 0.983676 3.789992 56.186660 3.259796 22.032563 8.955693 5.583300 -0.000001 -29.906400 8.245842 -1.229854 -1.249664 11.863554 -9.403014 -10.504046 1.886580 -1.184570 27.069232 -2.077728 -7.776165 -14.527246 0.945800 0.000000 -14.625000 4.274993 -5.251966 1.633248 0.375239 -5.621781 -1.986179 -5.792842 -5.565100 2.400232 10.493902 -19.528124 -9.014654 -2.908934 -0.208219 -0.330198 0.000000 0.000000 0.000000 2.290397 9.522118 0.519270 -41.043247 2.119753 -0.967950 -1.677877 -52.945884 -0.017284 8.640559 -1.344801 -0.114228 -0.159928 0.155522 -0.000000 0.000000 0.000000 0.000000 0.000000 0.000000 0.000000 17.590050 -18.835282 -0.392781 73.585131 -10.582341 -15.059181 4.130620 14.594854 0.004763 1.957239 2.186659 0.035975 0.097133 -0.014881 -0.000000 0.000000 0.000000 0.000000 0.000000 0.000000 0.000000 
